<svg xmlns="http://www.w3.org/2000/svg" version="1.1" xmlns:xlink="http://www.w3.org/1999/xlink" xmlns:svgjs="http://svgjs.com/svgjs" width="1440" height="560" preserveAspectRatio="none" viewBox="0 0 1440 560"><g mask="url(&quot;#SvgjsMask1008&quot;)" fill="none"><path d="M836.17 137.84L886.42 137.84L886.42 145.62L836.17 145.62z" stroke="rgba(35, 45, 75, 1)"></path><path d="M649.42 42.79L654.54 42.79L654.54 47.91L649.42 47.91z" fill="rgba(35, 45, 75, 1)"></path><path d="M332.87 351.04 a12.93 12.93 0 1 0 25.86 0 a12.93 12.93 0 1 0 -25.86 0z" fill="rgba(35, 45, 75, 1)"></path><path d="M979.01 237.74L983.93 237.74L983.93 278.51L979.01 278.51z" stroke="rgba(35, 45, 75, 1)"></path><path d="M272.96 26.42a5.29 5.29 0 1 0-10 3.47z" stroke="rgba(35, 45, 75, 1)"></path><path d="M275 505.68L326.97 505.68L326.97 559L275 559z" stroke="rgba(35, 45, 75, 1)"></path><path d="M781.6 431.16L828.56 431.16L828.56 478.12L781.6 478.12z" fill="rgba(35, 45, 75, 1)"></path><path d="M968.9 491.56 a0.09 0.09 0 1 0 0.18 0 a0.09 0.09 0 1 0 -0.18 0z" fill="rgba(35, 45, 75, 1)"></path><path d="M934.27 465.55L982.89 465.55L982.89 514.17L934.27 514.17z" stroke="rgba(35, 45, 75, 1)"></path><path d="M182.28 100.61L228.53 100.61L228.53 146.86L182.28 146.86z" stroke="rgba(35, 45, 75, 1)"></path><path d="M249.26 385.28a13.45 13.45 0 1 0 17.65-20.3z" fill="rgba(35, 45, 75, 1)"></path><path d="M468.1 373.33 a48.04 48.04 0 1 0 96.08 0 a48.04 48.04 0 1 0 -96.08 0z" fill="rgba(35, 45, 75, 1)"></path><path d="M1086.4 340.38a18.37 18.37 0 1 0 17.56 32.27z" stroke="rgba(35, 45, 75, 1)"></path><path d="M1275.29 91.15 a54.58 54.58 0 1 0 109.16 0 a54.58 54.58 0 1 0 -109.16 0z" fill="rgba(35, 45, 75, 1)"></path><path d="M466.63 187.17L515.77 187.17L515.77 221.06L466.63 221.06z" fill="rgba(35, 45, 75, 1)"></path><path d="M1198.72 75.18L1210.09 75.18L1210.09 86.55L1198.72 86.55z" stroke="rgba(35, 45, 75, 1)"></path><path d="M273.18 315.97L295.21 315.97L295.21 338L273.18 338z" stroke="rgba(35, 45, 75, 1)"></path><path d="M1179.97 148.02L1204.41 148.02L1204.41 172.46L1179.97 172.46z" fill="rgba(35, 45, 75, 1)"></path><path d="M505.01 31.41L553.4 31.41L553.4 49.14L505.01 49.14z" fill="rgba(35, 45, 75, 1)"></path><path d="M752.05 197.03L807.46 197.03L807.46 252.44L752.05 252.44z" fill="rgba(35, 45, 75, 1)"></path><path d="M188.3 341.38 a43.85 43.85 0 1 0 87.7 0 a43.85 43.85 0 1 0 -87.7 0z" stroke="rgba(35, 45, 75, 1)"></path><path d="M899.68 322.94 a31.84 31.84 0 1 0 63.68 0 a31.84 31.84 0 1 0 -63.68 0z" fill="rgba(35, 45, 75, 1)"></path><path d="M954.05 47.8 a44.84 44.84 0 1 0 89.68 0 a44.84 44.84 0 1 0 -89.68 0z" stroke="rgba(35, 45, 75, 1)"></path><path d="M440.76 484.79a1.3 1.3 0 1 0 0.04 2.6z" stroke="rgba(35, 45, 75, 1)"></path><path d="M1043.64 86.55L1059.04 86.55L1059.04 101.95L1043.64 101.95z" fill="rgba(35, 45, 75, 1)"></path><path d="M659.67 149.98a53.42 53.42 0 1 0-103.78-25.38z" stroke="rgba(35, 45, 75, 1)"></path><path d="M420.91 11.98L468.16 11.98L468.16 59.23L420.91 59.23z" fill="rgba(35, 45, 75, 1)"></path><path d="M1369.88 36.11a26.74 26.74 0 1 0 51.73 13.57z" stroke="rgba(35, 45, 75, 1)"></path><path d="M799.47 361.27 a1.76 1.76 0 1 0 3.52 0 a1.76 1.76 0 1 0 -3.52 0z" stroke="rgba(35, 45, 75, 1)"></path><path d="M491.37 211.22L535.25 211.22L535.25 255.1L491.37 255.1z" stroke="rgba(35, 45, 75, 1)"></path><path d="M661.3 359.98a35.21 35.21 0 1 0-63.58-30.29z" stroke="rgba(35, 45, 75, 1)"></path><path d="M931.37 258.65 a12.22 12.22 0 1 0 24.44 0 a12.22 12.22 0 1 0 -24.44 0z" fill="rgba(35, 45, 75, 1)"></path><path d="M926.53 33.8 a15.01 15.01 0 1 0 30.02 0 a15.01 15.01 0 1 0 -30.02 0z" fill="rgba(35, 45, 75, 1)"></path></g><defs><mask id="SvgjsMask1008"><rect width="1440" height="560" fill="#ffffff"></rect></mask></defs></svg>