<svg xmlns="http://www.w3.org/2000/svg" version="1.1" xmlns:xlink="http://www.w3.org/1999/xlink" xmlns:svgjs="http://svgjs.com/svgjs" width="1440" height="560" preserveAspectRatio="none" viewBox="0 0 1440 560"><g mask="url(&quot;#SvgjsMask1055&quot;)" fill="none"><rect width="1440" height="560" x="0" y="0" fill="#0e2a47"></rect><path d="M0,594.026C109.454,585.482,157.925,448.544,253.173,393.945C356.169,334.905,501.448,355.165,576.774,263.404C655.692,167.267,671.313,29.139,653.717,-93.99C636.114,-217.17,575.832,-336.647,479.729,-415.687C389.546,-489.858,264.127,-487.101,149.39,-508.776C46.423,-528.228,-55.411,-560.114,-157.398,-536.048C-262.58,-511.228,-359.432,-454.443,-429.509,-372.171C-499.259,-290.283,-519.805,-182.72,-546.999,-78.647C-577.576,38.374,-653.882,165.822,-598.131,273.157C-542.104,381.023,-387.026,378.099,-279.916,435.558C-183.48,487.291,-109.104,602.543,0,594.026" fill="#0b2239"></path><path d="M1440 1057.011C1567.778 1079.19 1688.892 1179.3 1812.222 1139.1889999999999 1938.715 1098.05 2018.8519999999999 970.571 2075.633 850.284 2132.857 729.058 2181.026 585.428 2132.634 460.414 2085.377 338.332 1921.656 315.707 1831.839 220.47000000000003 1747.689 131.24200000000002 1741.6399999999999-33.077999999999975 1626.747-76 1512.477-118.68899999999996 1394.579-26.927999999999997 1279.744 14.217999999999961 1172.01 52.81999999999999 1050.423 71.00299999999999 975.365 157.392 900.273 243.82 873.908 364.435 875.999 478.909 877.917 583.903 940.307 672.8 986.501 767.106 1031.346 858.6569999999999 1056.592 968.034 1142.4850000000001 1022.942 1228.327 1077.818 1339.618 1039.588 1440 1057.011" fill="#113255"></path></g><defs><mask id="SvgjsMask1055"><rect width="1440" height="560" fill="#ffffff"></rect></mask></defs></svg>