<svg xmlns="http://www.w3.org/2000/svg" version="1.1" xmlns:xlink="http://www.w3.org/1999/xlink" xmlns:svgjs="http://svgjs.com/svgjs" width="1440" height="560" preserveAspectRatio="none" viewBox="0 0 1440 560"><g mask="url(&quot;#SvgjsMask1005&quot;)" fill="none"><g transform="translate(0, 0)" stroke-linecap="round"><path d="M260 168.65 L260 391.35" stroke-width="15" stroke="rgba(35, 45, 75, 1)"></path><path d="M280 234.92 L280 325.08" stroke-width="15" stroke="rgba(35, 45, 75, 1)"></path><path d="M300 247.72 L300 312.28" stroke-width="15" stroke="rgba(229, 114, 0, 1)"></path><path d="M320 225.66 L320 334.33" stroke-width="15" stroke="rgba(35, 45, 75, 1)"></path><path d="M340 216.61 L340 343.39" stroke-width="15" stroke="rgba(35, 45, 75, 1)"></path><path d="M360 165.32 L360 394.68" stroke-width="15" stroke="rgba(35, 45, 75, 1)"></path><path d="M380 175.61 L380 384.39" stroke-width="15" stroke="rgba(229, 114, 0, 1)"></path><path d="M400 111.31 L400 448.69" stroke-width="15" stroke="rgba(229, 114, 0, 1)"></path><path d="M420 150.88 L420 409.12" stroke-width="15" stroke="rgba(229, 114, 0, 1)"></path><path d="M440 228.74 L440 331.26" stroke-width="15" stroke="rgba(35, 45, 75, 1)"></path><path d="M460 120.14 L460 439.86" stroke-width="15" stroke="rgba(229, 114, 0, 1)"></path><path d="M480 157.26 L480 402.74" stroke-width="15" stroke="rgba(35, 45, 75, 1)"></path><path d="M500 202.17 L500 357.83" stroke-width="15" stroke="rgba(229, 114, 0, 1)"></path><path d="M520 201.41 L520 358.6" stroke-width="15" stroke="rgba(35, 45, 75, 1)"></path><path d="M540 219 L540 341" stroke-width="15" stroke="rgba(229, 114, 0, 1)"></path><path d="M560 148.58 L560 411.42" stroke-width="15" stroke="rgba(35, 45, 75, 1)"></path><path d="M580 166.14 L580 393.86" stroke-width="15" stroke="rgba(35, 45, 75, 1)"></path><path d="M600 244.67 L600 315.33" stroke-width="15" stroke="rgba(229, 114, 0, 1)"></path><path d="M620 125.19 L620 434.81" stroke-width="15" stroke="rgba(35, 45, 75, 1)"></path><path d="M640 138.55 L640 421.45" stroke-width="15" stroke="rgba(229, 114, 0, 1)"></path><path d="M660 112.31 L660 447.69" stroke-width="15" stroke="rgba(229, 114, 0, 1)"></path><path d="M680 115.04 L680 444.96" stroke-width="15" stroke="rgba(229, 114, 0, 1)"></path><path d="M700 230.15 L700 329.85" stroke-width="15" stroke="rgba(229, 114, 0, 1)"></path><path d="M720 228.77 L720 331.23" stroke-width="15" stroke="rgba(35, 45, 75, 1)"></path><path d="M740 178.95 L740 381.05" stroke-width="15" stroke="rgba(35, 45, 75, 1)"></path><path d="M760 136.69 L760 423.31" stroke-width="15" stroke="rgba(229, 114, 0, 1)"></path><path d="M780 176.12 L780 383.88" stroke-width="15" stroke="rgba(35, 45, 75, 1)"></path><path d="M800 182.63 L800 377.37" stroke-width="15" stroke="rgba(35, 45, 75, 1)"></path><path d="M820 202.51 L820 357.49" stroke-width="15" stroke="rgba(35, 45, 75, 1)"></path><path d="M840 116.42 L840 443.58" stroke-width="15" stroke="rgba(35, 45, 75, 1)"></path><path d="M860 205.2 L860 354.8" stroke-width="15" stroke="rgba(35, 45, 75, 1)"></path><path d="M880 234.99 L880 325.01" stroke-width="15" stroke="rgba(35, 45, 75, 1)"></path><path d="M900 225.23 L900 334.77" stroke-width="15" stroke="rgba(229, 114, 0, 1)"></path><path d="M920 139.82 L920 420.18" stroke-width="15" stroke="rgba(35, 45, 75, 1)"></path><path d="M940 256.22 L940 303.78" stroke-width="15" stroke="rgba(229, 114, 0, 1)"></path><path d="M960 106.94 L960 453.06" stroke-width="15" stroke="rgba(229, 114, 0, 1)"></path><path d="M980 258.83 L980 301.17" stroke-width="15" stroke="rgba(229, 114, 0, 1)"></path><path d="M1000 125.39 L1000 434.61" stroke-width="15" stroke="rgba(229, 114, 0, 1)"></path><path d="M1020 166 L1020 394" stroke-width="15" stroke="rgba(229, 114, 0, 1)"></path><path d="M1040 260.76 L1040 299.24" stroke-width="15" stroke="rgba(229, 114, 0, 1)"></path><path d="M1060 156.2 L1060 403.8" stroke-width="15" stroke="rgba(35, 45, 75, 1)"></path><path d="M1080 217.06 L1080 342.94" stroke-width="15" stroke="rgba(229, 114, 0, 1)"></path><path d="M1100 191.08 L1100 368.92" stroke-width="15" stroke="rgba(35, 45, 75, 1)"></path><path d="M1120 216.82 L1120 343.18" stroke-width="15" stroke="rgba(35, 45, 75, 1)"></path><path d="M1140 177.76 L1140 382.24" stroke-width="15" stroke="rgba(35, 45, 75, 1)"></path><path d="M1160 136.63 L1160 423.37" stroke-width="15" stroke="rgba(35, 45, 75, 1)"></path><path d="M1180 182.69 L1180 377.31" stroke-width="15" stroke="rgba(35, 45, 75, 1)"></path></g></g><defs><mask id="SvgjsMask1005"><rect width="1440" height="560" fill="#ffffff"></rect></mask></defs></svg>