<?xml version="1.0" standalone="no"?><svg xmlns="http://www.w3.org/2000/svg" viewBox="0 0 1440 320"><path fill="#232D4B" fill-opacity="1" d="M0,160L20,144C40,128,80,96,120,101.3C160,107,200,149,240,181.3C280,213,320,235,360,250.7C400,267,440,277,480,261.3C520,245,560,203,600,176C640,149,680,139,720,144C760,149,800,171,840,192C880,213,920,235,960,224C1000,213,1040,171,1080,144C1120,117,1160,107,1200,117.3C1240,128,1280,160,1320,165.3C1360,171,1400,149,1420,138.7L1440,128L1440,320L1420,320C1400,320,1360,320,1320,320C1280,320,1240,320,1200,320C1160,320,1120,320,1080,320C1040,320,1000,320,960,320C920,320,880,320,840,320C800,320,760,320,720,320C680,320,640,320,600,320C560,320,520,320,480,320C440,320,400,320,360,320C320,320,280,320,240,320C200,320,160,320,120,320C80,320,40,320,20,320L0,320Z"></path></svg>